<svg width="200" height="200" viewBox="0 0 200 200" fill="none" xmlns="http://www.w3.org/2000/svg">
    <rect width="200" height="200" rx="30" fill="#161320"/>
    <path d="M100 25 C141.421 25 175 58.579 175 100 C175 141.421 141.421 175 100 175 C58.579 175 25 141.421 25 100 C25 58.579 58.579 25 100 25 Z" fill="#f9e2af"/>
    <path d="M100 25 C135 25 160 55 160 100 C160 145 135 175 100 175 C70 175 45 145 45 100 C45 55 70 25 100 25 Z" fill="#161320"/>
    <path d="M100 100 L100 40 A60 60 0 0 1 151.96 120 L100 100 Z" fill="#89dceb" fill-opacity="0.7"/>
</svg>
